<svg id="Layer_1" data-name="Layer 1" xmlns="http://www.w3.org/2000/svg" viewBox="0 0 171.8 18.01"><path id="Vector" d="M0,15l2-1.84a4.67,4.67,0,0,0,1.51,1.49,4.43,4.43,0,0,0,2,.62c1.58,0,2.53-.77,2.53-2s-.77-2.08-2.39-2.84l-1.3-.6C1.88,8.62.67,6.94.67,4.66A4.75,4.75,0,0,1,5.49,0h.07A5.38,5.38,0,0,1,8.12.55a5.68,5.68,0,0,1,2.06,1.71L8.32,4.31A3.26,3.26,0,0,0,5.54,2.75,2,2,0,0,0,3.37,4.48c0,.06,0,.12,0,.18,0,1.21.75,2,2.39,2.7L7,8c2.25,1,3.78,2.57,3.78,5,0,3-2.06,5-5.24,5A6.2,6.2,0,0,1,0,15"/><path id="Vector-2" d="M15.79,11V.21h2.69V11c0,2.72,1.3,4.23,3.65,4.23s3.62-1.51,3.62-4.23V.21h2.69V11c0,4.33-2.44,7-6.33,7s-6.33-2.7-6.33-7"/><path id="Vector-3" d="M39.61,8.72a2.81,2.81,0,0,0,3.12-2.47,2.17,2.17,0,0,0,0-.44,2.81,2.81,0,0,0-2.68-2.94,2.26,2.26,0,0,0-.45,0H37.5V8.72ZM34.81.21h4.92a5.39,5.39,0,0,1,5.74,5,3.88,3.88,0,0,1,0,.59,5.37,5.37,0,0,1-5.17,5.59H37.5v6.38H34.81Z"/><path id="Vector-4" d="M50.1.21V17.79h9.76V15H52.79v-4.7h5.69V7.49H52.79V3h7.07V.21Z"/><path id="Vector-5" d="M70.41,7.8c1.86,0,2.76-1,2.76-2.45s-.9-2.5-2.76-2.5H68V7.8Zm-.68,2.5H68v7.48H65.34V.21h5.33A5,5,0,0,1,75.9,4.87c0,.14,0,.27,0,.41a5.12,5.12,0,0,1-.93,3,4.54,4.54,0,0,1-2.46,1.77l4,7.75H73.59Z"/><path id="Vector-6" d="M81.78.21V17.79h2.69V10.26h5.36V7.49H84.47V3h6.87V.21Z"/><path id="Vector-7" d="M101.4,7.8c1.86,0,2.76-1,2.76-2.45s-.9-2.5-2.76-2.5H99V7.8Zm-.69,2.5H99v7.48H96.35V.21h5.32a5,5,0,0,1,5.24,4.66c0,.14,0,.27,0,.41a5.12,5.12,0,0,1-.93,3,4.58,4.58,0,0,1-2.46,1.77l4,7.75H104.6Z"/><path id="Vector-8" d="M125.48,9a6.38,6.38,0,0,0-1-3.31,5.72,5.72,0,0,0-2.59-2.15,5.31,5.31,0,0,0-3.27-.26A5.55,5.55,0,0,0,115.71,5a6.26,6.26,0,0,0-1.5,3.1,6.36,6.36,0,0,0,.35,3.48,5.92,5.92,0,0,0,2.1,2.69,5.34,5.34,0,0,0,3.13,1,5.28,5.28,0,0,0,2.22-.48,5.59,5.59,0,0,0,1.87-1.36,6.06,6.06,0,0,0,1.22-2A6.42,6.42,0,0,0,125.48,9ZM111.37,9a9.48,9.48,0,0,1,1.42-5A8.57,8.57,0,0,1,116.58.69a8,8,0,0,1,4.88-.52,8.25,8.25,0,0,1,4.31,2.47,9.15,9.15,0,0,1,2.31,4.61,9.52,9.52,0,0,1-.48,5.2,8.84,8.84,0,0,1-3.11,4A8,8,0,0,1,119.81,18a7.83,7.83,0,0,1-3.24-.66,8.21,8.21,0,0,1-2.75-1.95A8.77,8.77,0,0,1,112,12.46,9.5,9.5,0,0,1,111.37,9Z"/><path id="Vector-9" d="M133.24,0V17.79h2.69V7.37L145.09,18V.22H142.4V10.63Z"/><path id="Vector-10" d="M149.43.41V3.24h4.24V18h2.7V3.24h4.26V.41Z"/><path id="_" data-name=" " d="M168.33,6.26a1.84,1.84,0,0,0,1.55-.84l-.5-.48a1.3,1.3,0,0,1-1,.6,1.21,1.21,0,0,1-1.21-1.2V4.21a1.22,1.22,0,0,1,1.09-1.32h.11a1.28,1.28,0,0,1,1,.6l.5-.48a1.81,1.81,0,0,0-1.55-.84,1.93,1.93,0,0,0-1.9,2v.07a1.94,1.94,0,0,0,1.82,2.05Zm-.12,1a3,3,0,0,1-2.89-3.08,2.9,2.9,0,1,1,5.79,0A3,3,0,0,1,168.21,7.31Zm0,.74a3.73,3.73,0,0,0,3.58-3.82,3.59,3.59,0,1,0-7.16,0A3.72,3.72,0,0,0,168.22,8.05Z"/></svg>